<svg width="18" height="9" viewBox="0 0 18 9" fill="none" xmlns="http://www.w3.org/2000/svg">
<path d="M7.9949 2.64648L5.99805 2.64648L5.99805 4.76266L7.9949 4.76266L7.9949 2.64648Z" fill="#F5921D"/>
<path d="M9.99783 2.64648L8.00098 2.64648L8.00098 4.76266L9.99783 4.76266L9.99783 2.64648Z" fill="#F5921D"/>
<path d="M12.0008 2.64648L10.0039 2.64648L10.0039 4.76266L12.0008 4.76266L12.0008 2.64648Z" fill="#F5921D"/>
<path d="M9.99783 0.529541L8.00098 0.529541L8.00098 2.64571L9.99783 2.64571L9.99783 0.529541Z" fill="#F5921D"/>
<path d="M3.99978 6.875L2.00293 6.875L2.00293 8.99117L3.99978 8.99117L3.99978 6.875Z" fill="#F5921D"/>
<path d="M5.99099 6.875L3.99414 6.875L3.99414 8.99117L5.99099 8.99117L5.99099 6.875Z" fill="#F5921D"/>
<path d="M13.992 6.875L11.9951 6.875L11.9951 8.99117L13.992 8.99117L13.992 6.875Z" fill="#F5921D"/>
<path d="M15.9969 6.875L14 6.875L14 8.99117L15.9969 8.99117L15.9969 6.875Z" fill="#F5921D"/>
<path d="M5.99099 4.75781L3.99414 4.75781L3.99414 6.87398L5.99099 6.87398L5.99099 4.75781Z" fill="#F5921D"/>
<path d="M7.9949 4.75781L5.99805 4.75781L5.99805 6.87398L7.9949 6.87398L7.9949 4.75781Z" fill="#F5921D"/>
<path d="M12.0008 4.75781L10.0039 4.75781L10.0039 6.87398L12.0008 6.87398L12.0008 4.75781Z" fill="#F5921D"/>
<path d="M13.992 4.75781L11.9951 4.75781L11.9951 6.87398L13.992 6.87398L13.992 4.75781Z" fill="#F5921D"/>
</svg>
