<svg width="67" height="108" viewBox="0 0 67 108" fill="none" xmlns="http://www.w3.org/2000/svg">
<path d="M40.5315 0H27.021V13.5104H40.5315V0Z" fill="white"/>
<path d="M54.0407 0H40.5303V13.5104H54.0407V0Z" fill="white"/>
<path d="M67.5524 0H54.042V13.5104H67.5524V0Z" fill="white"/>
<path d="M27.0197 13.5103H13.5093V27.0206H27.0197V13.5103Z" fill="white"/>
<path d="M40.5315 13.5103H27.021V27.0206H40.5315V13.5103Z" fill="white"/>
<path d="M13.5105 27.0205H0V40.5309H13.5105V27.0205Z" fill="white"/>
<path d="M27.0197 27.0205H13.5093V40.5309H27.0197V27.0205Z" fill="white"/>
<path d="M13.5105 40.5312H0V54.0416H13.5105V40.5312Z" fill="white"/>
<path d="M54.0407 40.5312H40.5303V54.0416H54.0407V40.5312Z" fill="white"/>
<path d="M67.5524 40.5312H54.042V54.0416H67.5524V40.5312Z" fill="white"/>
<path d="M13.5105 54.0415H0V67.5519H13.5105V54.0415Z" fill="white"/>
<path d="M54.0407 54.0415H40.5303V67.5519H54.0407V54.0415Z" fill="white"/>
<path d="M67.5524 54.0415H54.042V67.5519H67.5524V54.0415Z" fill="white"/>
<path d="M13.5105 67.5518H0V81.0621H13.5105V67.5518Z" fill="white"/>
<path d="M27.0197 67.5518H13.5093V81.0621H27.0197V67.5518Z" fill="white"/>
<path d="M27.0197 81.062H13.5093V94.5724H27.0197V81.062Z" fill="white"/>
<path d="M40.5315 81.062H27.021V94.5724H40.5315V81.062Z" fill="white"/>
<path d="M40.5315 94.4897H27.021V108H40.5315V94.4897Z" fill="white"/>
<path d="M54.0407 94.4897H40.5303V108H54.0407V94.4897Z" fill="white"/>
<path d="M67.5524 94.4897H54.042V108H67.5524V94.4897Z" fill="white"/>
</svg>
