<svg width="108" height="108" viewBox="0 0 108 108" fill="none" xmlns="http://www.w3.org/2000/svg">
<path d="M40.5315 0H27.021V13.5104H40.5315V0Z" fill="white"/>
<path d="M54.041 0H40.5305V13.5104H54.041V0Z" fill="white"/>
<path d="M67.5524 0H54.042V13.5104H67.5524V0Z" fill="white"/>
<path d="M81.062 0H67.5515V13.5104H81.062V0Z" fill="white"/>
<path d="M27.02 13.5103H13.5095V27.0206H27.02V13.5103Z" fill="white"/>
<path d="M40.5315 13.5103H27.021V27.0206H40.5315V13.5103Z" fill="white"/>
<path d="M94.5735 13.5103H81.063V27.0206H94.5735V13.5103Z" fill="white"/>
<path d="M81.062 13.5103H67.5515V27.0206H81.062V13.5103Z" fill="white"/>
<path d="M13.5105 27.0205H0V40.5309H13.5105V27.0205Z" fill="white"/>
<path d="M27.02 27.0205H13.5095V40.5309H27.02V27.0205Z" fill="white"/>
<path d="M94.5735 27.0205H81.063V40.5309H94.5735V27.0205Z" fill="white"/>
<path d="M108 27.0205H94.4896V40.5309H108V27.0205Z" fill="white"/>
<path d="M13.5105 40.5312H0V54.0416H13.5105V40.5312Z" fill="white"/>
<path d="M54.041 40.5312H40.5305V54.0416H54.041V40.5312Z" fill="white"/>
<path d="M67.5524 40.5312H54.042V54.0416H67.5524V40.5312Z" fill="white"/>
<path d="M108 40.5312H94.4896V54.0416H108V40.5312Z" fill="white"/>
<path d="M13.5105 54.0415H0V67.5519H13.5105V54.0415Z" fill="white"/>
<path d="M54.041 54.0415H40.5305V67.5519H54.041V54.0415Z" fill="white"/>
<path d="M67.5524 54.0415H54.042V67.5519H67.5524V54.0415Z" fill="white"/>
<path d="M108 54.0415H94.4896V67.5519H108V54.0415Z" fill="white"/>
<path d="M13.5105 67.5518H0V81.0621H13.5105V67.5518Z" fill="white"/>
<path d="M27.02 67.5518H13.5095V81.0621H27.02V67.5518Z" fill="white"/>
<path d="M94.5735 67.5518H81.063V81.0621H94.5735V67.5518Z" fill="white"/>
<path d="M108 67.5518H94.4896V81.0621H108V67.5518Z" fill="white"/>
<path d="M27.02 81.062H13.5095V94.5724H27.02V81.062Z" fill="white"/>
<path d="M40.5315 81.062H27.021V94.5724H40.5315V81.062Z" fill="white"/>
<path d="M81.062 81.062H67.5515V94.5724H81.062V81.062Z" fill="white"/>
<path d="M94.5735 81.062H81.063V94.5724H94.5735V81.062Z" fill="white"/>
<path d="M40.5315 94.4897H27.021V108H40.5315V94.4897Z" fill="white"/>
<path d="M54.041 94.4897H40.5305V108H54.041V94.4897Z" fill="white"/>
<path d="M67.5524 94.4897H54.042V108H67.5524V94.4897Z" fill="white"/>
<path d="M81.062 94.4897H67.5515V108H81.062V94.4897Z" fill="white"/>
</svg>
