<svg width="40" height="80" viewBox="0 0 40 80" fill="none" xmlns="http://www.w3.org/2000/svg">
<path d="M34.2741 22.8608H40V17.1294H34.2741V22.8608Z" fill="white"/>
<path d="M28.5834 22.8608H34.3093V17.1294H28.5834V22.8608Z" fill="white"/>
<path d="M28.5873 17.1616H34.3132V11.4302H28.5873V17.1616Z" fill="white"/>
<path d="M22.8456 17.1616H28.5715V11.4302H22.8456V17.1616Z" fill="white"/>
<path d="M5.73626 34.3032H11.4622V28.5718H5.73626L5.73626 34.3032Z" fill="white"/>
<path d="M5.74017 28.603H11.4661V22.8716H5.74017L5.74017 28.603Z" fill="white"/>
<path d="M-6.81877e-05 28.603H5.72583L5.72583 22.8716H-6.81877e-05L-6.81877e-05 28.603Z" fill="white"/>
<path d="M22.8378 45.7354H28.5637V40.004H22.8378V45.7354Z" fill="white"/>
<path d="M17.1484 45.7354H22.8743V40.004H17.1484V45.7354Z" fill="white"/>
<path d="M17.1484 51.4365H22.8743V45.7051H17.1484V51.4365Z" fill="white"/>
<path d="M17.1484 57.1455H22.8743V51.4141H17.1484V57.1455Z" fill="white"/>
<path d="M17.1484 62.8784H22.8743V57.147H17.1484V62.8784Z" fill="white"/>
<path d="M17.1523 39.9839H22.8782V34.2525H17.1523V39.9839Z" fill="white"/>
<path d="M17.1523 34.3032H22.8782V28.5718H17.1523V34.3032Z" fill="white"/>
<path d="M17.1523 28.603H22.8782V22.8716H17.1523V28.603Z" fill="white"/>
<path d="M17.1523 22.8608H22.8782V17.1294H17.1523V22.8608Z" fill="white"/>
<path d="M11.4116 39.9839H17.1375V34.2525H11.4116V39.9839Z" fill="white"/>
<path d="M5.78522 17.1597H0.0593262V22.8911H5.78522V17.1597Z" fill="white"/>
<path d="M11.4603 17.1597H5.73438V22.8911H11.4603V17.1597Z" fill="white"/>
<path d="M11.4603 11.4287H5.73438V17.1601H11.4603V11.4287Z" fill="white"/>
<path d="M17.1861 11.4287H11.4602V17.1601H17.1861V11.4287Z" fill="white"/>
<path d="M22.8952 11.4604H28.6211V5.72906L22.8952 5.72906V11.4604Z" fill="white"/>
<path d="M17.153 11.4604H22.8789V5.72906L17.153 5.72906V11.4604Z" fill="white"/>
<path d="M17.153 5.73145L22.8789 5.73145V5.29289e-05L17.153 5.29289e-05V5.73145Z" fill="white"/>
<path d="M11.457 11.4604H17.1829V5.72906L11.457 5.72906V11.4604Z" fill="white"/>
<path d="M5.73371 57.126H0.0078125V62.8574H5.73371V57.126Z" fill="white"/>
<path d="M11.4603 57.126H5.73438V62.8574H11.4603V57.126Z" fill="white"/>
<path d="M11.4603 62.8569H5.73438V68.5883H11.4603V62.8569Z" fill="white"/>
<path d="M17.1348 62.8569H11.4089V68.5883H17.1348V62.8569Z" fill="white"/>
<path d="M34.3126 45.7144H28.5867V51.4457H34.3126V45.7144Z" fill="white"/>
<path d="M34.3126 51.4458H28.5867V57.1772H34.3126V51.4458Z" fill="white"/>
<path d="M39.9884 51.4458H34.2625V57.1772H39.9884V51.4458Z" fill="white"/>
<path d="M34.2573 62.8784L39.9832 62.8784L39.9832 57.147L34.2573 57.147L34.2573 62.8784Z" fill="white"/>
<path d="M28.5663 62.8784L34.2922 62.8784L34.2922 57.147L28.5663 57.147L28.5663 62.8784Z" fill="white"/>
<path d="M28.5702 68.5776L34.2961 68.5776L34.2961 62.8462L28.5702 62.8462L28.5702 68.5776Z" fill="white"/>
<path d="M22.8295 68.5776L28.5554 68.5776L28.5554 62.8462L22.8295 62.8462L22.8295 68.5776Z" fill="white"/>
<path d="M17.1348 68.5889H11.4089V74.3203H17.1348V68.5889Z" fill="white"/>
<path d="M22.8614 68.5889H17.1355V74.3203H22.8614V68.5889Z" fill="white"/>
<path d="M22.8614 74.2686H17.1355V79.9999H22.8614V74.2686Z" fill="white"/>
<path d="M28.586 68.5889H22.8601V74.3203H28.586V68.5889Z" fill="white"/>
</svg>
