<svg width="130" height="285" viewBox="0 0 130 285" fill="none" xmlns="http://www.w3.org/2000/svg">
<rect x="64.5" width="1" height="132" fill="#F5921D"/>
<rect x="64.5" y="132" width="1" height="1" fill="#F5921D"/>
<path d="M1.03456 152.016L2.05456 150.804C2.60656 151.284 3.32656 151.62 3.97456 151.62C4.70656 151.62 5.06656 151.332 5.06656 150.864C5.06656 150.372 4.62256 150.216 3.93856 149.928L2.93056 149.496C2.11456 149.172 1.34656 148.5 1.34656 147.36C1.34656 146.064 2.51056 145.032 4.13056 145.032C5.03056 145.032 5.97856 145.392 6.65056 146.064L5.76256 147.18C5.24656 146.784 4.75456 146.556 4.13056 146.556C3.53056 146.556 3.13456 146.82 3.13456 147.264C3.13456 147.744 3.65056 147.912 4.33456 148.188L5.33056 148.596C6.27856 148.98 6.87856 149.616 6.87856 150.72C6.87856 152.016 5.79856 153.144 3.93856 153.144C2.91856 153.144 1.83856 152.76 1.03456 152.016ZM9.0111 149.136C9.0111 146.544 10.7271 145.032 12.7431 145.032C13.7151 145.032 14.5311 145.512 15.0591 146.052L14.0871 147.144C13.6911 146.784 13.3191 146.556 12.7671 146.556C11.6751 146.556 10.8231 147.504 10.8231 149.076C10.8231 150.684 11.5791 151.62 12.7191 151.62C13.3671 151.62 13.8231 151.344 14.2071 150.924L15.1791 151.992C14.5311 152.748 13.6671 153.144 12.6951 153.144C10.6671 153.144 9.0111 151.764 9.0111 149.136ZM19.32 146.58V148.776H20.22C21.144 148.776 21.648 148.38 21.648 147.612C21.648 146.844 21.144 146.58 20.22 146.58H19.32ZM23.76 153H21.78L20.28 150.18H19.32V153H17.544V145.176H20.364C22.02 145.176 23.388 145.752 23.388 147.612C23.388 148.764 22.824 149.496 21.996 149.868L23.76 153ZM29.3068 153.144C27.2068 153.144 25.7548 151.608 25.7548 149.052C25.7548 146.496 27.2068 145.032 29.3068 145.032C31.4188 145.032 32.8588 146.508 32.8588 149.052C32.8588 151.608 31.4188 153.144 29.3068 153.144ZM29.3068 151.62C30.3748 151.62 31.0468 150.624 31.0468 149.052C31.0468 147.492 30.3748 146.556 29.3068 146.556C28.2508 146.556 27.5668 147.492 27.5668 149.052C27.5668 150.624 28.2508 151.62 29.3068 151.62ZM35.5183 153V145.176H37.2943V151.512H40.3783V153H35.5183ZM42.9058 153V145.176H44.6818V151.512H47.7658V153H42.9058ZM55.5253 153V146.664H53.3653V145.176H59.4373V146.664H57.2893V153H55.5253ZM64.6858 153.144C62.5858 153.144 61.1338 151.608 61.1338 149.052C61.1338 146.496 62.5858 145.032 64.6858 145.032C66.7978 145.032 68.2378 146.508 68.2378 149.052C68.2378 151.608 66.7978 153.144 64.6858 153.144ZM64.6858 151.62C65.7538 151.62 66.4258 150.624 66.4258 149.052C66.4258 147.492 65.7538 146.556 64.6858 146.556C63.6298 146.556 62.9458 147.492 62.9458 149.052C62.9458 150.624 63.6298 151.62 64.6858 151.62ZM74.5933 153V145.176H79.5013V146.664H76.3693V148.236H79.0333V149.712H76.3693V151.512H79.6213V153H74.5933ZM81.564 153L83.724 148.98L81.684 145.176H83.664L84.336 146.652C84.516 147.012 84.684 147.42 84.912 147.912H84.96C85.14 147.42 85.296 147.012 85.452 146.652L86.076 145.176H87.96L85.932 149.064L88.092 153H86.124L85.356 151.404C85.152 150.996 84.972 150.6 84.768 150.12H84.72C84.528 150.6 84.36 150.996 84.18 151.404L83.448 153H81.564ZM90.3409 153V145.176H93.1969C94.9009 145.176 96.2569 145.8 96.2569 147.696C96.2569 149.532 94.8529 150.348 93.1969 150.348H92.1169V153H90.3409ZM92.1169 148.944H93.0889C94.0609 148.944 94.5289 148.512 94.5289 147.696C94.5289 146.88 94.0249 146.58 93.0889 146.58H92.1169V148.944ZM98.8065 153V145.176H100.583V151.512H103.667V153H98.8065ZM108.94 153.144C106.84 153.144 105.388 151.608 105.388 149.052C105.388 146.496 106.84 145.032 108.94 145.032C111.052 145.032 112.492 146.508 112.492 149.052C112.492 151.608 111.052 153.144 108.94 153.144ZM108.94 151.62C110.008 151.62 110.68 150.624 110.68 149.052C110.68 147.492 110.008 146.556 108.94 146.556C107.884 146.556 107.2 147.492 107.2 149.052C107.2 150.624 107.884 151.62 108.94 151.62ZM116.928 146.58V148.776H117.828C118.752 148.776 119.256 148.38 119.256 147.612C119.256 146.844 118.752 146.58 117.828 146.58H116.928ZM121.368 153H119.388L117.888 150.18H116.928V153H115.152V145.176H117.972C119.628 145.176 120.996 145.752 120.996 147.612C120.996 148.764 120.432 149.496 119.604 149.868L121.368 153ZM123.735 153V145.176H128.643V146.664H125.511V148.236H128.175V149.712H125.511V151.512H128.763V153H123.735Z" fill="#F5921D"/>
<path d="M61.9794 183L67.9978 183L67.9978 177.006L61.9794 177.006L61.9794 183Z" fill="#F5921D"/>
<path d="M56 176.995L62.0183 176.995L62.0183 171L56 171L56 176.995Z" fill="#F5921D"/>
<path d="M67.9816 176.996L74 176.996L74 171.001L67.9816 171.001L67.9816 176.996Z" fill="#F5921D"/>
<rect x="64.5" y="205" width="1" height="80" fill="#F5921D"/>
</svg>
