<svg width="552" height="117" viewBox="0 0 552 117" fill="none" xmlns="http://www.w3.org/2000/svg">
<rect x="226" width="100" height="1" fill="#F5921D"/>
<rect x="275.5" y="1" width="1" height="20" fill="#F5921D"/>
<path d="M43.9353 51.0977H53.6209L52.2322 53.6289H47.0115V56.5117H53.3133V59.0342H47.0115V61.46H53.3133V64H43.9353V51.0977ZM56.3437 51.0977H61.3096L63.6914 61.46L66.0996 51.0977H71.1006V64H68.2793V53.541L65.7568 64H61.5117L59.1475 53.251V64H56.3437V51.0977ZM76.9787 57.2148V64H73.9025V51.0977H80.5119H81.0656C81.8566 51.0977 82.5568 51.2031 83.1662 51.4141C83.7814 51.6191 84.2385 51.9736 84.5373 52.4775C84.8537 52.9814 85.0588 53.4473 85.1525 53.875C85.2463 54.3027 85.2932 54.7861 85.2932 55.3252C85.2932 55.8174 85.258 56.248 85.1877 56.6172C85.1174 56.9922 84.9211 57.4668 84.5988 58.041C84.2824 58.6152 83.7873 59.0107 83.1135 59.2275C82.4455 59.4443 81.5519 59.5527 80.4328 59.5527H78.8859L76.9787 57.2148ZM76.9787 56.8193H79.176H79.6945C80.468 56.8193 80.9982 56.7578 81.2853 56.6348C81.5842 56.5176 81.7863 56.3506 81.8918 56.1338C82.0031 55.917 82.0588 55.6299 82.0588 55.2725C82.0588 54.9561 82.009 54.6924 81.9094 54.4814C81.7922 54.2881 81.5725 54.1416 81.2502 54.042C80.9338 53.9365 80.4357 53.8838 79.7561 53.8838H79.299H76.9787V56.8193ZM94.4145 51.001C94.848 51.001 95.2934 51.0303 95.7504 51.0889C96.2074 51.1416 96.6498 51.2354 97.0775 51.3701C97.5111 51.499 97.9125 51.6777 98.2816 51.9062C98.6566 52.1348 98.9818 52.4219 99.2572 52.7676C99.7611 53.3945 100.124 54.1504 100.347 55.0352C100.57 55.9141 100.681 56.8076 100.681 57.7158C100.681 58.8115 100.54 59.8018 100.259 60.6865C99.9779 61.5654 99.5854 62.2568 99.0814 62.7607C98.6127 63.2529 98.0854 63.5811 97.4994 63.7451C96.9428 63.8916 96.4125 63.9883 95.9086 64.0352C95.4047 64.082 94.9213 64.1055 94.4584 64.1055C93.474 64.1055 92.5629 64.0117 91.725 63.8242C90.893 63.6309 90.1898 63.2822 89.6156 62.7783C89.0473 62.2744 88.6137 61.5186 88.3148 60.5107C88.016 59.5029 87.8666 58.4629 87.8666 57.3906C87.8666 57.2617 87.8666 57.1475 87.8666 57.0479C87.8666 56.9424 87.8725 56.8545 87.8842 56.7842L88.1039 55.3604C88.2211 54.5693 88.5316 53.8135 89.0355 53.0928C89.3578 52.624 89.7299 52.252 90.1518 51.9766C90.5736 51.7012 91.0189 51.4932 91.4877 51.3525C91.9564 51.2061 92.4398 51.1123 92.9379 51.0713C93.4359 51.0244 93.9281 51.001 94.4145 51.001ZM91.0131 57.3027C91.0131 58.0586 91.1039 58.7324 91.2855 59.3242C91.4672 59.9336 91.8305 60.4141 92.3754 60.7656C92.9203 61.1113 93.559 61.2842 94.2914 61.2842C94.8305 61.2842 95.352 61.167 95.8559 60.9326C96.3598 60.6982 96.7436 60.3525 97.0072 59.8955C97.2709 59.4619 97.4232 59.0547 97.4643 58.6738C97.5111 58.2988 97.5404 58.0615 97.5521 57.9619C97.5639 57.8564 97.5697 57.7627 97.5697 57.6807C97.5697 57.0361 97.4818 56.4268 97.3061 55.8525C97.1303 55.2725 96.8285 54.8037 96.4008 54.4463C96.1254 54.2529 95.7768 54.1035 95.3549 53.998C94.933 53.8867 94.5199 53.8311 94.1156 53.8311C93.7172 53.8311 93.2484 53.9219 92.7094 54.1035C92.1703 54.2793 91.7514 54.6572 91.4525 55.2373C91.1596 55.8115 91.0131 56.5 91.0131 57.3027ZM102.859 51.0977H105.953L107.754 62.0225L109.609 51.0977H114.109L115.999 61.8555L117.853 51.0977H120.754L118.301 64H113.819L111.806 53.1631L109.934 64H105.25L102.859 51.0977ZM122.844 51.0977H132.529L131.14 53.6289H125.92V56.5117H132.221V59.0342H125.92V61.46H132.221V64H122.844V51.0977ZM135.208 51.0977H142.134C142.579 51.0977 142.978 51.1123 143.329 51.1416C143.687 51.1709 144.006 51.2236 144.287 51.2998C144.568 51.376 144.82 51.4902 145.043 51.6426C145.266 51.7949 145.474 51.9971 145.667 52.249C146.06 52.7529 146.317 53.2715 146.44 53.8047C146.569 54.3379 146.634 54.8623 146.634 55.3779C146.634 55.8818 146.584 56.3623 146.484 56.8193C146.385 57.2764 146.197 57.6719 145.922 58.0059C145.658 58.3398 145.327 58.5977 144.929 58.7793C144.53 58.9609 144.214 59.0781 143.979 59.1309C143.745 59.1836 143.502 59.21 143.25 59.21L146.44 64H142.854L138.302 56.9951V64H135.208V51.0977ZM138.302 56.6348H140.877H141.237C142.04 56.6875 142.605 56.5879 142.934 56.3359C143.268 56.084 143.446 55.668 143.47 55.0879C143.505 54.584 143.338 54.209 142.969 53.9629C142.605 53.7168 142.052 53.6055 141.308 53.6289H140.947H138.302V56.6348ZM152.512 51.0977V64H149.418V51.0977H152.512ZM160.306 51.0977L164.217 61.8203V51.0977H167.056V64H162.178L158.513 53.5586V64H155.648V51.0977H160.306ZM181.811 51.0977L180.299 53.8838H177.153C176.684 53.8838 176.262 53.8984 175.887 53.9277C175.518 53.957 175.19 54.0127 174.903 54.0947C174.622 54.1709 174.379 54.2881 174.173 54.4463C173.974 54.5986 173.801 54.8008 173.655 55.0527C173.391 55.5449 173.215 55.9902 173.128 56.3887C173.046 56.7812 173.004 57.2061 173.004 57.6631C173.004 58.6006 173.18 59.3506 173.532 59.9131C173.713 60.2002 173.907 60.4287 174.112 60.5986C174.323 60.7686 174.563 60.9004 174.833 60.9941C175.102 61.0879 175.401 61.1523 175.729 61.1875C176.063 61.2168 176.441 61.2314 176.863 61.2314H178.339V58.9199H175.079V56.1689H181.433V64H175.782C174.639 64 173.661 63.8652 172.846 63.5957C172.032 63.3262 171.402 62.8193 170.957 62.0752C170.511 61.3311 170.21 60.5957 170.051 59.8691C169.899 59.1426 169.823 58.3604 169.823 57.5225C169.823 56.7197 169.899 55.958 170.051 55.2373C170.21 54.5166 170.5 53.7783 170.921 53.0225C171.332 52.2549 171.973 51.7451 172.846 51.4932C173.713 51.2295 174.727 51.0977 175.887 51.0977H181.811ZM200.941 51.0977L199.359 53.6289H194.675H194.191C193.857 53.6055 193.579 53.623 193.356 53.6816C193.134 53.7344 192.952 53.8164 192.812 53.9277C192.677 54.0332 192.583 54.1621 192.53 54.3145C192.478 54.4609 192.442 54.6221 192.425 54.7979C192.425 54.9912 192.492 55.208 192.627 55.4482C192.762 55.665 192.97 55.7969 193.251 55.8438C193.532 55.8906 193.913 55.9141 194.394 55.9141H196.459C197.432 55.9141 198.199 56.0488 198.762 56.3184C199.055 56.4473 199.324 56.6289 199.57 56.8633C199.816 57.0977 200.027 57.3701 200.203 57.6807C200.385 57.9912 200.525 58.3398 200.625 58.7266C200.73 59.1074 200.783 59.5088 200.783 59.9307C200.783 60.8799 200.578 61.7031 200.168 62.4004C199.787 63.0801 199.277 63.5225 198.639 63.7275C198.006 63.9092 197.177 64 196.151 64H189.313V61.46H195.132H195.457C195.826 61.4834 196.146 61.4658 196.415 61.4072C196.685 61.3486 196.907 61.2607 197.083 61.1436C197.259 61.0205 197.385 60.8828 197.461 60.7305C197.537 60.5723 197.569 60.4023 197.558 60.2207C197.546 59.8984 197.414 59.6201 197.162 59.3857C196.91 59.1514 196.544 59.0576 196.063 59.1045H195.58H193.488C192.615 59.1045 191.892 58.9727 191.317 58.709C191.013 58.5625 190.734 58.3662 190.482 58.1201C190.23 57.874 190.011 57.5898 189.823 57.2676C189.642 56.9453 189.498 56.5908 189.393 56.2041C189.293 55.8115 189.243 55.3984 189.243 54.9648C189.243 54.1387 189.422 53.3887 189.779 52.7148C189.961 52.3926 190.189 52.126 190.465 51.915C190.74 51.7041 191.051 51.54 191.396 51.4229C191.748 51.2998 192.123 51.2148 192.521 51.168C192.926 51.1211 193.345 51.0977 193.778 51.0977H194.279H200.941ZM203.436 51.0977H215.283L213.807 53.6289H210.669V64H207.611V53.6289H203.436V51.0977ZM226.022 51.0977L230.706 64H227.463L226.602 61.6621H223.631L222.12 59.1045L220.265 64H216.934L221.706 51.0977H226.022ZM222.207 58.8672H225.662L223.939 54.0068L222.207 58.8672ZM233.069 51.0977H239.995C240.44 51.0977 240.838 51.1123 241.19 51.1416C241.547 51.1709 241.867 51.2236 242.148 51.2998C242.429 51.376 242.681 51.4902 242.904 51.6426C243.127 51.7949 243.335 51.9971 243.528 52.249C243.921 52.7529 244.178 53.2715 244.301 53.8047C244.43 54.3379 244.495 54.8623 244.495 55.3779C244.495 55.8818 244.445 56.3623 244.345 56.8193C244.246 57.2764 244.058 57.6719 243.783 58.0059C243.519 58.3398 243.188 58.5977 242.79 58.7793C242.391 58.9609 242.075 59.0781 241.84 59.1309C241.606 59.1836 241.363 59.21 241.111 59.21L244.301 64H240.715L236.163 56.9951V64H233.069V51.0977ZM236.163 56.6348H238.738H239.098C239.901 56.6875 240.466 56.5879 240.795 56.3359C241.129 56.084 241.307 55.668 241.331 55.0879C241.366 54.584 241.199 54.209 240.83 53.9629C240.466 53.7168 239.913 53.6055 239.169 53.6289H238.808H236.163V56.6348ZM247.051 51.0977H258.898L257.422 53.6289H254.284V64H251.225V53.6289H247.051V51.0977ZM261.243 51.0977H264.319V57.8828V58.4717C264.319 59.1572 264.39 59.708 264.53 60.124C264.677 60.5342 264.914 60.8359 265.242 61.0293C265.576 61.2109 265.863 61.3252 266.104 61.3721C266.344 61.4189 266.59 61.4424 266.842 61.4424C267.439 61.4424 267.961 61.3105 268.406 61.0469C268.863 60.7715 269.156 60.3818 269.285 59.8779C269.42 59.374 269.487 58.7148 269.487 57.9004V51.0977H272.563V58.4893C272.563 59.9893 272.373 61.0938 271.992 61.8027C271.605 62.5 271.143 63.0039 270.604 63.3145C270.053 63.625 269.467 63.8359 268.846 63.9473C268.23 64.0527 267.545 64.1055 266.789 64.1055C266.402 64.1055 266.045 64.0938 265.717 64.0703C265.389 64.0469 265.066 64.0059 264.75 63.9473C264.439 63.8887 264.129 63.8008 263.818 63.6836C263.508 63.5605 263.188 63.4023 262.86 63.209C262.204 62.8105 261.768 62.2217 261.551 61.4424C261.346 60.6514 261.243 59.585 261.243 58.2432V51.0977ZM278.635 57.2148V64H275.559V51.0977H282.168H282.722C283.513 51.0977 284.213 51.2031 284.822 51.4141C285.438 51.6191 285.895 51.9736 286.194 52.4775C286.51 52.9814 286.715 53.4473 286.809 53.875C286.903 54.3027 286.949 54.7861 286.949 55.3252C286.949 55.8174 286.914 56.248 286.844 56.6172C286.774 56.9922 286.577 57.4668 286.255 58.041C285.939 58.6152 285.444 59.0107 284.77 59.2275C284.102 59.4443 283.208 59.5527 282.089 59.5527H280.542L278.635 57.2148ZM278.635 56.8193H280.832H281.351C282.124 56.8193 282.654 56.7578 282.942 56.6348C283.24 56.5176 283.443 56.3506 283.548 56.1338C283.659 55.917 283.715 55.6299 283.715 55.2725C283.715 54.9561 283.665 54.6924 283.566 54.4814C283.448 54.2881 283.229 54.1416 282.906 54.042C282.59 53.9365 282.092 53.8838 281.412 53.8838H280.955H278.635V56.8193ZM301.309 51.0977L299.727 53.6289H295.042H294.559C294.225 53.6055 293.947 53.623 293.724 53.6816C293.501 53.7344 293.32 53.8164 293.179 53.9277C293.044 54.0332 292.951 54.1621 292.898 54.3145C292.845 54.4609 292.81 54.6221 292.792 54.7979C292.792 54.9912 292.86 55.208 292.995 55.4482C293.129 55.665 293.337 55.7969 293.619 55.8438C293.9 55.8906 294.281 55.9141 294.761 55.9141H296.827C297.799 55.9141 298.567 56.0488 299.129 56.3184C299.422 56.4473 299.692 56.6289 299.938 56.8633C300.184 57.0977 300.395 57.3701 300.571 57.6807C300.752 57.9912 300.893 58.3398 300.993 58.7266C301.098 59.1074 301.151 59.5088 301.151 59.9307C301.151 60.8799 300.946 61.7031 300.536 62.4004C300.155 63.0801 299.645 63.5225 299.006 63.7275C298.373 63.9092 297.544 64 296.519 64H289.681V61.46H295.499H295.825C296.194 61.4834 296.513 61.4658 296.783 61.4072C297.052 61.3486 297.275 61.2607 297.451 61.1436C297.626 61.0205 297.752 60.8828 297.828 60.7305C297.905 60.5723 297.937 60.4023 297.925 60.2207C297.913 59.8984 297.782 59.6201 297.53 59.3857C297.278 59.1514 296.911 59.0576 296.431 59.1045H295.948H293.856C292.983 59.1045 292.259 58.9727 291.685 58.709C291.38 58.5625 291.102 58.3662 290.85 58.1201C290.598 57.874 290.378 57.5898 290.191 57.2676C290.009 56.9453 289.866 56.5908 289.76 56.2041C289.661 55.8115 289.611 55.3984 289.611 54.9648C289.611 54.1387 289.789 53.3887 290.147 52.7148C290.328 52.3926 290.557 52.126 290.832 51.915C291.108 51.7041 291.418 51.54 291.764 51.4229C292.116 51.2998 292.491 51.2148 292.889 51.168C293.293 51.1211 293.712 51.0977 294.146 51.0977H294.647H301.309ZM304.252 61.3896H307.794L305.728 64.958H304.252V61.3896ZM319.128 51.0977V64H316.034V51.0977H319.128ZM334.129 51.0977L332.617 53.8838H329.471C329.002 53.8838 328.58 53.8984 328.205 53.9277C327.836 53.957 327.508 54.0127 327.221 54.0947C326.94 54.1709 326.696 54.2881 326.491 54.4463C326.292 54.5986 326.119 54.8008 325.973 55.0527C325.709 55.5449 325.533 55.9902 325.445 56.3887C325.363 56.7812 325.322 57.2061 325.322 57.6631C325.322 58.6006 325.498 59.3506 325.85 59.9131C326.031 60.2002 326.225 60.4287 326.43 60.5986C326.641 60.7686 326.881 60.9004 327.151 60.9941C327.42 61.0879 327.719 61.1523 328.047 61.1875C328.381 61.2168 328.759 61.2314 329.181 61.2314H330.657V58.9199H327.397V56.1689H333.751V64H328.1C326.957 64 325.979 63.8652 325.164 63.5957C324.35 63.3262 323.72 62.8193 323.275 62.0752C322.829 61.3311 322.528 60.5957 322.369 59.8691C322.217 59.1426 322.141 58.3604 322.141 57.5225C322.141 56.7197 322.217 55.958 322.369 55.2373C322.528 54.5166 322.818 53.7783 323.239 53.0225C323.65 52.2549 324.291 51.7451 325.164 51.4932C326.031 51.2295 327.045 51.0977 328.205 51.0977H334.129ZM341.255 51.0977L345.166 61.8203V51.0977H348.005V64H343.127L339.462 53.5586V64H336.597V51.0977H341.255ZM354.006 51.0977V64H350.913V51.0977H354.006ZM356.931 51.0977H368.779L367.303 53.6289H364.165V64H361.106V53.6289H356.931V51.0977ZM374.147 51.0977V64H371.054V51.0977H374.147ZM381.942 51.0977L385.853 61.8203V51.0977H388.692V64H383.814L380.149 53.5586V64H377.283V51.0977H381.942ZM403.447 51.0977L401.935 53.8838H398.788C398.32 53.8838 397.898 53.8984 397.523 53.9277C397.154 53.957 396.826 54.0127 396.538 54.0947C396.257 54.1709 396.014 54.2881 395.809 54.4463C395.61 54.5986 395.437 54.8008 395.29 55.0527C395.027 55.5449 394.851 55.9902 394.763 56.3887C394.681 56.7812 394.64 57.2061 394.64 57.6631C394.64 58.6006 394.816 59.3506 395.167 59.9131C395.349 60.2002 395.542 60.4287 395.747 60.5986C395.958 60.7686 396.199 60.9004 396.468 60.9941C396.738 61.0879 397.036 61.1523 397.365 61.1875C397.699 61.2168 398.077 61.2314 398.498 61.2314H399.975V58.9199H396.714V56.1689H403.069V64H397.417C396.275 64 395.296 63.8652 394.482 63.5957C393.667 63.3262 393.037 62.8193 392.592 62.0752C392.147 61.3311 391.845 60.5957 391.687 59.8691C391.535 59.1426 391.458 58.3604 391.458 57.5225C391.458 56.7197 391.535 55.958 391.687 55.2373C391.845 54.5166 392.135 53.7783 392.557 53.0225C392.967 52.2549 393.609 51.7451 394.482 51.4932C395.349 51.2295 396.363 51.0977 397.523 51.0977H403.447ZM422.577 51.0977L420.995 53.6289H416.31H415.827C415.493 53.6055 415.215 53.623 414.992 53.6816C414.769 53.7344 414.588 53.8164 414.447 53.9277C414.312 54.0332 414.219 54.1621 414.166 54.3145C414.113 54.4609 414.078 54.6221 414.06 54.7979C414.06 54.9912 414.128 55.208 414.263 55.4482C414.397 55.665 414.605 55.7969 414.887 55.8438C415.168 55.8906 415.549 55.9141 416.029 55.9141H418.095C419.067 55.9141 419.835 56.0488 420.397 56.3184C420.69 56.4473 420.96 56.6289 421.206 56.8633C421.452 57.0977 421.663 57.3701 421.839 57.6807C422.02 57.9912 422.161 58.3398 422.261 58.7266C422.366 59.1074 422.419 59.5088 422.419 59.9307C422.419 60.8799 422.214 61.7031 421.804 62.4004C421.423 63.0801 420.913 63.5225 420.274 63.7275C419.641 63.9092 418.812 64 417.787 64H410.949V61.46H416.767H417.093C417.462 61.4834 417.781 61.4658 418.051 61.4072C418.32 61.3486 418.543 61.2607 418.719 61.1436C418.894 61.0205 419.02 60.8828 419.096 60.7305C419.173 60.5723 419.205 60.4023 419.193 60.2207C419.181 59.8984 419.05 59.6201 418.798 59.3857C418.546 59.1514 418.18 59.0576 417.699 59.1045H417.216H415.124C414.251 59.1045 413.527 58.9727 412.953 58.709C412.648 58.5625 412.37 58.3662 412.118 58.1201C411.866 57.874 411.646 57.5898 411.459 57.2676C411.277 56.9453 411.134 56.5908 411.028 56.2041C410.929 55.8115 410.879 55.3984 410.879 54.9648C410.879 54.1387 411.057 53.3887 411.415 52.7148C411.596 52.3926 411.825 52.126 412.1 51.915C412.376 51.7041 412.686 51.54 413.032 51.4229C413.384 51.2998 413.759 51.2148 414.157 51.168C414.561 51.1211 414.98 51.0977 415.414 51.0977H415.915H422.577ZM425.37 51.0977H428.446V57.8828V58.4717C428.446 59.1572 428.517 59.708 428.657 60.124C428.804 60.5342 429.041 60.8359 429.369 61.0293C429.703 61.2109 429.99 61.3252 430.23 61.3721C430.471 61.4189 430.717 61.4424 430.969 61.4424C431.566 61.4424 432.088 61.3105 432.533 61.0469C432.99 60.7715 433.283 60.3818 433.412 59.8779C433.547 59.374 433.614 58.7148 433.614 57.9004V51.0977H436.69V58.4893C436.69 59.9893 436.5 61.0938 436.119 61.8027C435.732 62.5 435.27 63.0039 434.73 63.3145C434.18 63.625 433.594 63.8359 432.973 63.9473C432.357 64.0527 431.672 64.1055 430.916 64.1055C430.529 64.1055 430.172 64.0938 429.844 64.0703C429.516 64.0469 429.193 64.0059 428.877 63.9473C428.566 63.8887 428.256 63.8008 427.945 63.6836C427.635 63.5605 427.315 63.4023 426.987 63.209C426.331 62.8105 425.895 62.2217 425.678 61.4424C425.473 60.6514 425.37 59.585 425.37 58.2432V51.0977ZM450.364 51.0977L448.835 53.9014H446.761H446.19C445.422 53.9014 444.792 53.9834 444.3 54.1475C443.808 54.3057 443.436 54.6016 443.184 55.0352C442.932 55.4688 442.765 55.8848 442.683 56.2832C442.607 56.6758 442.569 57.083 442.569 57.5049C442.569 57.7451 442.577 57.9648 442.595 58.1641C442.612 58.3574 442.648 58.5566 442.7 58.7617C442.759 58.9668 442.829 59.1807 442.911 59.4033C442.999 59.626 443.113 59.8691 443.254 60.1328C443.541 60.6484 443.89 60.9766 444.3 61.1172C444.734 61.252 445.434 61.3193 446.401 61.3193H449.916V64H445.021C444.429 64 443.904 63.9678 443.447 63.9033C442.996 63.833 442.595 63.7275 442.243 63.5869C441.898 63.4404 441.593 63.2441 441.329 62.998C441.066 62.752 440.825 62.4502 440.609 62.0928C440.187 61.3721 439.891 60.6367 439.721 59.8867C439.557 59.1367 439.475 58.3662 439.475 57.5752C439.475 56.7725 439.548 56.0195 439.695 55.3164C439.847 54.6133 440.14 53.8896 440.573 53.1455C441.019 52.3896 441.649 51.8594 442.463 51.5547C443.278 51.25 444.233 51.0977 445.328 51.0977H450.364ZM463.52 51.0977L461.991 53.9014H459.916H459.345C458.578 53.9014 457.948 53.9834 457.455 54.1475C456.963 54.3057 456.591 54.6016 456.339 55.0352C456.087 55.4688 455.92 55.8848 455.838 56.2832C455.762 56.6758 455.724 57.083 455.724 57.5049C455.724 57.7451 455.733 57.9648 455.75 58.1641C455.768 58.3574 455.803 58.5566 455.856 58.7617C455.914 58.9668 455.985 59.1807 456.067 59.4033C456.155 59.626 456.269 59.8691 456.41 60.1328C456.697 60.6484 457.045 60.9766 457.455 61.1172C457.889 61.252 458.589 61.3193 459.556 61.3193H463.072V64H458.176C457.584 64 457.06 63.9678 456.603 63.9033C456.152 63.833 455.75 63.7275 455.399 63.5869C455.053 63.4404 454.748 63.2441 454.485 62.998C454.221 62.752 453.981 62.4502 453.764 62.0928C453.342 61.3721 453.046 60.6367 452.876 59.8867C452.712 59.1367 452.63 58.3662 452.63 57.5752C452.63 56.7725 452.703 56.0195 452.85 55.3164C453.002 54.6133 453.295 53.8896 453.729 53.1455C454.174 52.3896 454.804 51.8594 455.619 51.5547C456.433 51.25 457.388 51.0977 458.484 51.0977H463.52ZM465.944 51.0977H475.63L474.241 53.6289H469.02V56.5117H475.322V59.0342H469.02V61.46H475.322V64H465.944V51.0977ZM489.796 51.0977L488.214 53.6289H483.529H483.046C482.712 53.6055 482.433 53.623 482.211 53.6816C481.988 53.7344 481.806 53.8164 481.666 53.9277C481.531 54.0332 481.437 54.1621 481.385 54.3145C481.332 54.4609 481.297 54.6221 481.279 54.7979C481.279 54.9912 481.346 55.208 481.481 55.4482C481.616 55.665 481.824 55.7969 482.105 55.8438C482.387 55.8906 482.767 55.9141 483.248 55.9141H485.313C486.286 55.9141 487.054 56.0488 487.616 56.3184C487.909 56.4473 488.179 56.6289 488.425 56.8633C488.671 57.0977 488.882 57.3701 489.057 57.6807C489.239 57.9912 489.38 58.3398 489.479 58.7266C489.585 59.1074 489.638 59.5088 489.638 59.9307C489.638 60.8799 489.432 61.7031 489.022 62.4004C488.641 63.0801 488.132 63.5225 487.493 63.7275C486.86 63.9092 486.031 64 485.006 64H478.168V61.46H483.986H484.311C484.68 61.4834 485 61.4658 485.269 61.4072C485.539 61.3486 485.762 61.2607 485.937 61.1436C486.113 61.0205 486.239 60.8828 486.315 60.7305C486.391 60.5723 486.424 60.4023 486.412 60.2207C486.4 59.8984 486.268 59.6201 486.016 59.3857C485.764 59.1514 485.398 59.0576 484.918 59.1045H484.434H482.343C481.47 59.1045 480.746 58.9727 480.172 58.709C479.867 58.5625 479.589 58.3662 479.337 58.1201C479.085 57.874 478.865 57.5898 478.678 57.2676C478.496 56.9453 478.352 56.5908 478.247 56.2041C478.147 55.8115 478.097 55.3984 478.097 54.9648C478.097 54.1387 478.276 53.3887 478.634 52.7148C478.815 52.3926 479.044 52.126 479.319 51.915C479.595 51.7041 479.905 51.54 480.251 51.4229C480.602 51.2998 480.977 51.2148 481.376 51.168C481.78 51.1211 482.199 51.0977 482.633 51.0977H483.134H489.796ZM504.094 51.0977L502.512 53.6289H497.827H497.344C497.01 53.6055 496.731 53.623 496.509 53.6816C496.286 53.7344 496.104 53.8164 495.964 53.9277C495.829 54.0332 495.735 54.1621 495.683 54.3145C495.63 54.4609 495.595 54.6221 495.577 54.7979C495.577 54.9912 495.645 55.208 495.779 55.4482C495.914 55.665 496.122 55.7969 496.403 55.8438C496.685 55.8906 497.065 55.9141 497.546 55.9141H499.611C500.584 55.9141 501.352 56.0488 501.914 56.3184C502.207 56.4473 502.477 56.6289 502.723 56.8633C502.969 57.0977 503.18 57.3701 503.355 57.6807C503.537 57.9912 503.678 58.3398 503.777 58.7266C503.883 59.1074 503.936 59.5088 503.936 59.9307C503.936 60.8799 503.73 61.7031 503.32 62.4004C502.939 63.0801 502.43 63.5225 501.791 63.7275C501.158 63.9092 500.329 64 499.304 64H492.466V61.46H498.284H498.609C498.979 61.4834 499.298 61.4658 499.567 61.4072C499.837 61.3486 500.06 61.2607 500.235 61.1436C500.411 61.0205 500.537 60.8828 500.613 60.7305C500.689 60.5723 500.722 60.4023 500.71 60.2207C500.698 59.8984 500.566 59.6201 500.314 59.3857C500.062 59.1514 499.696 59.0576 499.216 59.1045H498.732H496.641C495.768 59.1045 495.044 58.9727 494.47 58.709C494.165 58.5625 493.887 58.3662 493.635 58.1201C493.383 57.874 493.163 57.5898 492.976 57.2676C492.794 56.9453 492.65 56.5908 492.545 56.2041C492.445 55.8115 492.396 55.3984 492.396 54.9648C492.396 54.1387 492.574 53.3887 492.932 52.7148C493.113 52.3926 493.342 52.126 493.617 51.915C493.893 51.7041 494.203 51.54 494.549 51.4229C494.9 51.2998 495.275 51.2148 495.674 51.168C496.078 51.1211 496.497 51.0977 496.931 51.0977H497.432H504.094ZM132.921 74.0977L137.606 87H134.363L133.501 84.6621H130.53L129.019 82.1045L127.164 87H123.833L128.606 74.0977H132.921ZM129.107 81.8672H132.561L130.838 77.0068L129.107 81.8672ZM155.664 74.0977L154.134 76.9014H152.06H151.489C150.721 76.9014 150.091 76.9834 149.599 77.1475C149.107 77.3057 148.735 77.6016 148.483 78.0352C148.231 78.4688 148.064 78.8848 147.982 79.2832C147.906 79.6758 147.868 80.083 147.868 80.5049C147.868 80.7451 147.877 80.9648 147.894 81.1641C147.912 81.3574 147.947 81.5566 148 81.7617C148.058 81.9668 148.129 82.1807 148.211 82.4033C148.298 82.626 148.413 82.8691 148.553 83.1328C148.84 83.6484 149.189 83.9766 149.599 84.1172C150.033 84.252 150.733 84.3193 151.7 84.3193H155.215V87H150.32C149.728 87 149.204 86.9678 148.747 86.9033C148.296 86.833 147.894 86.7275 147.543 86.5869C147.197 86.4404 146.892 86.2441 146.629 85.998C146.365 85.752 146.125 85.4502 145.908 85.0928C145.486 84.3721 145.19 83.6367 145.02 82.8867C144.856 82.1367 144.774 81.3662 144.774 80.5752C144.774 79.7725 144.847 79.0195 144.994 78.3164C145.146 77.6133 145.439 76.8896 145.873 76.1455C146.318 75.3896 146.948 74.8594 147.762 74.5547C148.577 74.25 149.532 74.0977 150.628 74.0977H155.664ZM164.442 74.001C164.876 74.001 165.321 74.0303 165.778 74.0889C166.235 74.1416 166.678 74.2354 167.105 74.3701C167.539 74.499 167.94 74.6777 168.309 74.9062C168.684 75.1348 169.01 75.4219 169.285 75.7676C169.789 76.3945 170.152 77.1504 170.375 78.0352C170.597 78.9141 170.709 79.8076 170.709 80.7158C170.709 81.8115 170.568 82.8018 170.287 83.6865C170.006 84.5654 169.613 85.2568 169.109 85.7607C168.64 86.2529 168.113 86.5811 167.527 86.7451C166.971 86.8916 166.44 86.9883 165.936 87.0352C165.432 87.082 164.949 87.1055 164.486 87.1055C163.502 87.1055 162.591 87.0117 161.753 86.8242C160.921 86.6309 160.218 86.2822 159.643 85.7783C159.075 85.2744 158.641 84.5186 158.343 83.5107C158.044 82.5029 157.894 81.4629 157.894 80.3906C157.894 80.2617 157.894 80.1475 157.894 80.0479C157.894 79.9424 157.9 79.8545 157.912 79.7842L158.132 78.3604C158.249 77.5693 158.559 76.8135 159.063 76.0928C159.386 75.624 159.758 75.252 160.18 74.9766C160.601 74.7012 161.047 74.4932 161.515 74.3525C161.984 74.2061 162.468 74.1123 162.966 74.0713C163.464 74.0244 163.956 74.001 164.442 74.001ZM161.041 80.3027C161.041 81.0586 161.132 81.7324 161.313 82.3242C161.495 82.9336 161.858 83.4141 162.403 83.7656C162.948 84.1113 163.587 84.2842 164.319 84.2842C164.858 84.2842 165.38 84.167 165.884 83.9326C166.388 83.6982 166.771 83.3525 167.035 82.8955C167.299 82.4619 167.451 82.0547 167.492 81.6738C167.539 81.2988 167.568 81.0615 167.58 80.9619C167.592 80.8564 167.597 80.7627 167.597 80.6807C167.597 80.0361 167.51 79.4268 167.334 78.8525C167.158 78.2725 166.856 77.8037 166.429 77.4463C166.153 77.2529 165.805 77.1035 165.383 76.998C164.961 76.8867 164.548 76.8311 164.143 76.8311C163.745 76.8311 163.276 76.9219 162.737 77.1035C162.198 77.2793 161.779 77.6572 161.48 78.2373C161.187 78.8115 161.041 79.5 161.041 80.3027ZM173.643 74.0977H178.608L180.99 84.46L183.398 74.0977H188.399V87H185.578V76.541L183.056 87H178.811L176.446 76.251V87H173.643V74.0977ZM194.278 80.2148V87H191.201V74.0977H197.811H198.364C199.155 74.0977 199.856 74.2031 200.465 74.4141C201.08 74.6191 201.537 74.9736 201.836 75.4775C202.153 75.9814 202.358 76.4473 202.451 76.875C202.545 77.3027 202.592 77.7861 202.592 78.3252C202.592 78.8174 202.557 79.248 202.487 79.6172C202.416 79.9922 202.22 80.4668 201.898 81.041C201.581 81.6152 201.086 82.0107 200.412 82.2275C199.744 82.4443 198.851 82.5527 197.732 82.5527H196.185L194.278 80.2148ZM194.278 79.8193H196.475H196.993C197.767 79.8193 198.297 79.7578 198.584 79.6348C198.883 79.5176 199.085 79.3506 199.191 79.1338C199.302 78.917 199.358 78.6299 199.358 78.2725C199.358 77.9561 199.308 77.6924 199.208 77.4814C199.091 77.2881 198.871 77.1416 198.549 77.042C198.233 76.9365 197.735 76.8838 197.055 76.8838H196.598H194.278V79.8193ZM213.84 74.0977L218.525 87H215.282L214.42 84.6621H211.45L209.938 82.1045L208.083 87H204.752L209.525 74.0977H213.84ZM210.026 81.8672H213.48L211.757 77.0068L210.026 81.8672ZM225.44 74.0977L229.351 84.8203V74.0977H232.19V87H227.312L223.647 76.5586V87H220.782V74.0977H225.44ZM238.191 74.0977V87H235.097V74.0977H238.191ZM247.682 74.001C248.115 74.001 248.561 74.0303 249.018 74.0889C249.475 74.1416 249.917 74.2354 250.345 74.3701C250.778 74.499 251.18 74.6777 251.549 74.9062C251.924 75.1348 252.249 75.4219 252.524 75.7676C253.028 76.3945 253.392 77.1504 253.614 78.0352C253.837 78.9141 253.948 79.8076 253.948 80.7158C253.948 81.8115 253.808 82.8018 253.526 83.6865C253.245 84.5654 252.853 85.2568 252.349 85.7607C251.88 86.2529 251.353 86.5811 250.767 86.7451C250.21 86.8916 249.68 86.9883 249.176 87.0352C248.672 87.082 248.188 87.1055 247.726 87.1055C246.741 87.1055 245.83 87.0117 244.992 86.8242C244.16 86.6309 243.457 86.2822 242.883 85.7783C242.314 85.2744 241.881 84.5186 241.582 83.5107C241.283 82.5029 241.134 81.4629 241.134 80.3906C241.134 80.2617 241.134 80.1475 241.134 80.0479C241.134 79.9424 241.14 79.8545 241.151 79.7842L241.371 78.3604C241.488 77.5693 241.799 76.8135 242.303 76.0928C242.625 75.624 242.997 75.252 243.419 74.9766C243.841 74.7012 244.286 74.4932 244.755 74.3525C245.224 74.2061 245.707 74.1123 246.205 74.0713C246.703 74.0244 247.195 74.001 247.682 74.001ZM244.28 80.3027C244.28 81.0586 244.371 81.7324 244.553 82.3242C244.734 82.9336 245.098 83.4141 245.643 83.7656C246.188 84.1113 246.826 84.2842 247.559 84.2842C248.098 84.2842 248.619 84.167 249.123 83.9326C249.627 83.6982 250.011 83.3525 250.274 82.8955C250.538 82.4619 250.69 82.0547 250.731 81.6738C250.778 81.2988 250.808 81.0615 250.819 80.9619C250.831 80.8564 250.837 80.7627 250.837 80.6807C250.837 80.0361 250.749 79.4268 250.573 78.8525C250.397 78.2725 250.096 77.8037 249.668 77.4463C249.393 77.2529 249.044 77.1035 248.622 76.998C248.2 76.8867 247.787 76.8311 247.383 76.8311C246.984 76.8311 246.516 76.9219 245.977 77.1035C245.438 77.2793 245.019 77.6572 244.72 78.2373C244.427 78.8115 244.28 79.5 244.28 80.3027ZM261.391 74.0977L265.302 84.8203V74.0977H268.141V87H263.263L259.598 76.5586V87H256.733V74.0977H261.391ZM282.455 74.001C282.888 74.001 283.334 74.0303 283.791 74.0889C284.248 74.1416 284.69 74.2354 285.118 74.3701C285.551 74.499 285.953 74.6777 286.322 74.9062C286.697 75.1348 287.022 75.4219 287.297 75.7676C287.801 76.3945 288.165 77.1504 288.387 78.0352C288.61 78.9141 288.721 79.8076 288.721 80.7158C288.721 81.8115 288.581 82.8018 288.299 83.6865C288.018 84.5654 287.626 85.2568 287.122 85.7607C286.653 86.2529 286.126 86.5811 285.54 86.7451C284.983 86.8916 284.453 86.9883 283.949 87.0352C283.445 87.082 282.962 87.1055 282.499 87.1055C281.514 87.1055 280.603 87.0117 279.765 86.8242C278.933 86.6309 278.23 86.2822 277.656 85.7783C277.088 85.2744 276.654 84.5186 276.355 83.5107C276.056 82.5029 275.907 81.4629 275.907 80.3906C275.907 80.2617 275.907 80.1475 275.907 80.0479C275.907 79.9424 275.913 79.8545 275.924 79.7842L276.144 78.3604C276.261 77.5693 276.572 76.8135 277.076 76.0928C277.398 75.624 277.77 75.252 278.192 74.9766C278.614 74.7012 279.059 74.4932 279.528 74.3525C279.997 74.2061 280.48 74.1123 280.978 74.0713C281.476 74.0244 281.968 74.001 282.455 74.001ZM279.053 80.3027C279.053 81.0586 279.144 81.7324 279.326 82.3242C279.507 82.9336 279.871 83.4141 280.416 83.7656C280.961 84.1113 281.599 84.2842 282.332 84.2842C282.871 84.2842 283.392 84.167 283.896 83.9326C284.4 83.6982 284.784 83.3525 285.047 82.8955C285.311 82.4619 285.464 82.0547 285.505 81.6738C285.551 81.2988 285.581 81.0615 285.592 80.9619C285.604 80.8564 285.61 80.7627 285.61 80.6807C285.61 80.0361 285.522 79.4268 285.346 78.8525C285.171 78.2725 284.869 77.8037 284.441 77.4463C284.166 77.2529 283.817 77.1035 283.395 76.998C282.973 76.8867 282.56 76.8311 282.156 76.8311C281.757 76.8311 281.289 76.9219 280.75 77.1035C280.211 77.2793 279.792 77.6572 279.493 78.2373C279.2 78.8115 279.053 79.5 279.053 80.3027ZM296.164 74.0977L300.075 84.8203V74.0977H302.914V87H298.036L294.371 76.5586V87H291.506V74.0977H296.164ZM310.223 74.0977H313.747L316.525 78.1582L319.065 74.0977H322.677L318.071 81.2607V87H314.995V81.3135L310.223 74.0977ZM331.455 74.001C331.889 74.001 332.334 74.0303 332.791 74.0889C333.248 74.1416 333.691 74.2354 334.119 74.3701C334.552 74.499 334.954 74.6777 335.323 74.9062C335.698 75.1348 336.023 75.4219 336.298 75.7676C336.802 76.3945 337.165 77.1504 337.388 78.0352C337.611 78.9141 337.722 79.8076 337.722 80.7158C337.722 81.8115 337.581 82.8018 337.3 83.6865C337.019 84.5654 336.626 85.2568 336.122 85.7607C335.654 86.2529 335.126 86.5811 334.54 86.7451C333.984 86.8916 333.454 86.9883 332.95 87.0352C332.446 87.082 331.962 87.1055 331.499 87.1055C330.515 87.1055 329.604 87.0117 328.766 86.8242C327.934 86.6309 327.231 86.2822 326.657 85.7783C326.088 85.2744 325.655 84.5186 325.356 83.5107C325.057 82.5029 324.908 81.4629 324.908 80.3906C324.908 80.2617 324.908 80.1475 324.908 80.0479C324.908 79.9424 324.913 79.8545 324.925 79.7842L325.145 78.3604C325.262 77.5693 325.573 76.8135 326.077 76.0928C326.399 75.624 326.771 75.252 327.193 74.9766C327.615 74.7012 328.06 74.4932 328.529 74.3525C328.997 74.2061 329.481 74.1123 329.979 74.0713C330.477 74.0244 330.969 74.001 331.455 74.001ZM328.054 80.3027C328.054 81.0586 328.145 81.7324 328.327 82.3242C328.508 82.9336 328.871 83.4141 329.416 83.7656C329.961 84.1113 330.6 84.2842 331.332 84.2842C331.871 84.2842 332.393 84.167 332.897 83.9326C333.401 83.6982 333.785 83.3525 334.048 82.8955C334.312 82.4619 334.464 82.0547 334.505 81.6738C334.552 81.2988 334.581 81.0615 334.593 80.9619C334.605 80.8564 334.611 80.7627 334.611 80.6807C334.611 80.0361 334.523 79.4268 334.347 78.8525C334.171 78.2725 333.87 77.8037 333.442 77.4463C333.166 77.2529 332.818 77.1035 332.396 76.998C331.974 76.8867 331.561 76.8311 331.157 76.8311C330.758 76.8311 330.289 76.9219 329.75 77.1035C329.211 77.2793 328.792 77.6572 328.494 78.2373C328.201 78.8115 328.054 79.5 328.054 80.3027ZM340.594 74.0977H343.671V80.8828V81.4717C343.671 82.1572 343.741 82.708 343.881 83.124C344.028 83.5342 344.265 83.8359 344.593 84.0293C344.927 84.2109 345.214 84.3252 345.455 84.3721C345.695 84.4189 345.941 84.4424 346.193 84.4424C346.791 84.4424 347.312 84.3105 347.757 84.0469C348.214 83.7715 348.507 83.3818 348.636 82.8779C348.771 82.374 348.839 81.7148 348.839 80.9004V74.0977H351.915V81.4893C351.915 82.9893 351.724 84.0938 351.343 84.8027C350.957 85.5 350.494 86.0039 349.955 86.3145C349.404 86.625 348.818 86.8359 348.197 86.9473C347.582 87.0527 346.896 87.1055 346.14 87.1055C345.754 87.1055 345.396 87.0938 345.068 87.0703C344.74 87.0469 344.418 87.0059 344.101 86.9473C343.791 86.8887 343.48 86.8008 343.17 86.6836C342.859 86.5605 342.54 86.4023 342.212 86.209C341.555 85.8105 341.119 85.2217 340.902 84.4424C340.697 83.6514 340.594 82.585 340.594 81.2432V74.0977ZM354.963 74.0977H361.888C362.334 74.0977 362.732 74.1123 363.084 74.1416C363.441 74.1709 363.761 74.2236 364.042 74.2998C364.323 74.376 364.575 74.4902 364.798 74.6426C365.02 74.7949 365.228 74.9971 365.422 75.249C365.814 75.7529 366.072 76.2715 366.195 76.8047C366.324 77.3379 366.388 77.8623 366.388 78.3779C366.388 78.8818 366.339 79.3623 366.239 79.8193C366.139 80.2764 365.952 80.6719 365.677 81.0059C365.413 81.3398 365.082 81.5977 364.683 81.7793C364.285 81.9609 363.969 82.0781 363.734 82.1309C363.5 82.1836 363.257 82.21 363.005 82.21L366.195 87H362.609L358.056 79.9951V87H354.963V74.0977ZM358.056 79.6348H360.632H360.992C361.795 79.6875 362.36 79.5879 362.688 79.3359C363.022 79.084 363.201 78.668 363.224 78.0879C363.26 77.584 363.093 77.209 362.723 76.9629C362.36 76.7168 361.806 76.6055 361.062 76.6289H360.702H358.056V79.6348ZM377.354 80.2148V87H374.278V74.0977H380.887H381.441C382.232 74.0977 382.932 74.2031 383.541 74.4141C384.156 74.6191 384.613 74.9736 384.912 75.4775C385.229 75.9814 385.434 76.4473 385.528 76.875C385.621 77.3027 385.668 77.7861 385.668 78.3252C385.668 78.8174 385.633 79.248 385.563 79.6172C385.492 79.9922 385.296 80.4668 384.974 81.041C384.657 81.6152 384.162 82.0107 383.488 82.2275C382.82 82.4443 381.927 82.5527 380.808 82.5527H379.261L377.354 80.2148ZM377.354 79.8193H379.551H380.07C380.843 79.8193 381.373 79.7578 381.66 79.6348C381.959 79.5176 382.161 79.3506 382.267 79.1338C382.378 78.917 382.434 78.6299 382.434 78.2725C382.434 77.9561 382.384 77.6924 382.284 77.4814C382.167 77.2881 381.947 77.1416 381.625 77.042C381.309 76.9365 380.811 76.8838 380.131 76.8838H379.674H377.354V79.8193ZM396.916 74.0977L401.601 87H398.358L397.496 84.6621H394.526L393.014 82.1045L391.16 87H387.828L392.601 74.0977H396.916ZM393.102 81.8672H396.556L394.833 77.0068L393.102 81.8672ZM403.647 74.0977H415.495L414.018 76.6289H410.88V87H407.822V76.6289H403.647V74.0977ZM417.822 74.0977H420.898V79.0811H425.451V74.0977H428.518V87H425.451V79.5117L423.939 81.8672H420.898V87H417.822V74.0977Z" fill="#F5921D"/>
<rect x="275.5" y="115" width="1" height="1" fill="#F5921D"/>
<rect x="275.5" y="116" width="1" height="1" fill="#F5921D"/>
</svg>
