<svg width="130" height="285" viewBox="0 0 130 285" fill="none" xmlns="http://www.w3.org/2000/svg">
<rect x="64.5" width="1" height="104" fill="#F5921D"/>
<rect x="45" y="104" width="40" height="1" fill="#F5921D"/>
<path d="M1.03456 132.016L2.05456 130.804C2.60656 131.284 3.32656 131.62 3.97456 131.62C4.70656 131.62 5.06656 131.332 5.06656 130.864C5.06656 130.372 4.62256 130.216 3.93856 129.928L2.93056 129.496C2.11456 129.172 1.34656 128.5 1.34656 127.36C1.34656 126.064 2.51056 125.032 4.13056 125.032C5.03056 125.032 5.97856 125.392 6.65056 126.064L5.76256 127.18C5.24656 126.784 4.75456 126.556 4.13056 126.556C3.53056 126.556 3.13456 126.82 3.13456 127.264C3.13456 127.744 3.65056 127.912 4.33456 128.188L5.33056 128.596C6.27856 128.98 6.87856 129.616 6.87856 130.72C6.87856 132.016 5.79856 133.144 3.93856 133.144C2.91856 133.144 1.83856 132.76 1.03456 132.016ZM9.0111 129.136C9.0111 126.544 10.7271 125.032 12.7431 125.032C13.7151 125.032 14.5311 125.512 15.0591 126.052L14.0871 127.144C13.6911 126.784 13.3191 126.556 12.7671 126.556C11.6751 126.556 10.8231 127.504 10.8231 129.076C10.8231 130.684 11.5791 131.62 12.7191 131.62C13.3671 131.62 13.8231 131.344 14.2071 130.924L15.1791 131.992C14.5311 132.748 13.6671 133.144 12.6951 133.144C10.6671 133.144 9.0111 131.764 9.0111 129.136ZM19.32 126.58V128.776H20.22C21.144 128.776 21.648 128.38 21.648 127.612C21.648 126.844 21.144 126.58 20.22 126.58H19.32ZM23.76 133H21.78L20.28 130.18H19.32V133H17.544V125.176H20.364C22.02 125.176 23.388 125.752 23.388 127.612C23.388 128.764 22.824 129.496 21.996 129.868L23.76 133ZM29.3068 133.144C27.2068 133.144 25.7548 131.608 25.7548 129.052C25.7548 126.496 27.2068 125.032 29.3068 125.032C31.4188 125.032 32.8588 126.508 32.8588 129.052C32.8588 131.608 31.4188 133.144 29.3068 133.144ZM29.3068 131.62C30.3748 131.62 31.0468 130.624 31.0468 129.052C31.0468 127.492 30.3748 126.556 29.3068 126.556C28.2508 126.556 27.5668 127.492 27.5668 129.052C27.5668 130.624 28.2508 131.62 29.3068 131.62ZM35.5183 133V125.176H37.2943V131.512H40.3783V133H35.5183ZM42.9058 133V125.176H44.6818V131.512H47.7658V133H42.9058ZM55.5253 133V126.664H53.3653V125.176H59.4373V126.664H57.2893V133H55.5253ZM64.6858 133.144C62.5858 133.144 61.1338 131.608 61.1338 129.052C61.1338 126.496 62.5858 125.032 64.6858 125.032C66.7978 125.032 68.2378 126.508 68.2378 129.052C68.2378 131.608 66.7978 133.144 64.6858 133.144ZM64.6858 131.62C65.7538 131.62 66.4258 130.624 66.4258 129.052C66.4258 127.492 65.7538 126.556 64.6858 126.556C63.6298 126.556 62.9458 127.492 62.9458 129.052C62.9458 130.624 63.6298 131.62 64.6858 131.62ZM74.5933 133V125.176H79.5013V126.664H76.3693V128.236H79.0333V129.712H76.3693V131.512H79.6213V133H74.5933ZM81.564 133L83.724 128.98L81.684 125.176H83.664L84.336 126.652C84.516 127.012 84.684 127.42 84.912 127.912H84.96C85.14 127.42 85.296 127.012 85.452 126.652L86.076 125.176H87.96L85.932 129.064L88.092 133H86.124L85.356 131.404C85.152 130.996 84.972 130.6 84.768 130.12H84.72C84.528 130.6 84.36 130.996 84.18 131.404L83.448 133H81.564ZM90.3409 133V125.176H93.1969C94.9009 125.176 96.2569 125.8 96.2569 127.696C96.2569 129.532 94.8529 130.348 93.1969 130.348H92.1169V133H90.3409ZM92.1169 128.944H93.0889C94.0609 128.944 94.5289 128.512 94.5289 127.696C94.5289 126.88 94.0249 126.58 93.0889 126.58H92.1169V128.944ZM98.8065 133V125.176H100.583V131.512H103.667V133H98.8065ZM108.94 133.144C106.84 133.144 105.388 131.608 105.388 129.052C105.388 126.496 106.84 125.032 108.94 125.032C111.052 125.032 112.492 126.508 112.492 129.052C112.492 131.608 111.052 133.144 108.94 133.144ZM108.94 131.62C110.008 131.62 110.68 130.624 110.68 129.052C110.68 127.492 110.008 126.556 108.94 126.556C107.884 126.556 107.2 127.492 107.2 129.052C107.2 130.624 107.884 131.62 108.94 131.62ZM116.928 126.58V128.776H117.828C118.752 128.776 119.256 128.38 119.256 127.612C119.256 126.844 118.752 126.58 117.828 126.58H116.928ZM121.368 133H119.388L117.888 130.18H116.928V133H115.152V125.176H117.972C119.628 125.176 120.996 125.752 120.996 127.612C120.996 128.764 120.432 129.496 119.604 129.868L121.368 133ZM123.735 133V125.176H128.643V126.664H125.511V128.236H128.175V129.712H125.511V131.512H128.763V133H123.735Z" fill="white"/>
<path d="M61.9794 171L67.9978 171L67.9978 165.006L61.9794 165.006L61.9794 171Z" fill="white"/>
<path d="M56 164.995L62.0183 164.995L62.0183 159L56 159L56 164.995Z" fill="white"/>
<path d="M67.9816 164.996L74 164.996L74 159.001L67.9816 159.001L67.9816 164.996Z" fill="white"/>
<g opacity="0.5">
<path d="M61.9794 195L67.9978 195L67.9978 189.006L61.9794 189.006L61.9794 195Z" fill="white"/>
<path d="M56 188.995L62.0183 188.995L62.0183 183L56 183L56 188.995Z" fill="white"/>
<path d="M67.9816 188.996L74 188.996L74 183.001L67.9816 183.001L67.9816 188.996Z" fill="white"/>
</g>
<rect x="64.5" y="225" width="1" height="60" fill="#F5921D"/>
</svg>
