<svg width="90" height="90" viewBox="0 0 90 90" fill="none" xmlns="http://www.w3.org/2000/svg">
<path d="M49.981 79.9431H59.981V69.9407H49.981V79.9431Z" fill="white"/>
<path d="M39.9893 79.9431H49.9893V69.9407H39.9893V79.9431Z" fill="white"/>
<path d="M29.9917 79.9431H39.9917V69.9407H29.9917V79.9431Z" fill="white"/>
<path d="M39.9893 89.9993H49.9893V79.9968H39.9893V89.9993Z" fill="white"/>
<path d="M69.9812 59.9622H79.9812V49.9597H69.9812V59.9622Z" fill="white"/>
<path d="M59.9778 59.9619H69.9778V49.9595H59.9778V59.9619Z" fill="white"/>
<path d="M49.981 59.9626H59.981V49.9602H49.981V59.9626Z" fill="white"/>
<path d="M19.9905 59.9622H29.9905V49.9597H19.9905V59.9622Z" fill="white"/>
<path d="M29.9917 59.9626H39.9917V49.9602H29.9917V59.9626Z" fill="white"/>
<path d="M9.99369 59.9619H19.9937V49.9595H9.99369V59.9619Z" fill="white"/>
<path d="M49.981 69.9302H59.981V59.9277H49.981V69.9302Z" fill="white"/>
<path d="M29.9917 69.9304H39.9917V59.928H29.9917V69.9304Z" fill="white"/>
<path d="M40 10.002H30V20.0044H40V10.002Z" fill="white"/>
<path d="M49.9997 10.0022H39.9998V20.0046H49.9997V10.0022Z" fill="white"/>
<path d="M59.9995 10.002H49.9995V20.0044H59.9995V10.002Z" fill="white"/>
<path d="M50.0005 0L40.0005 0V10.0024H50.0005V0Z" fill="white"/>
<path d="M20.0005 30.0068H10.0005V40.0093H20.0005V30.0068Z" fill="white"/>
<path d="M30.0002 30.0068H20.0002V40.0093H30.0002V30.0068Z" fill="white"/>
<path d="M40 30.0068H30V40.0093H40V30.0068Z" fill="white"/>
<path d="M70.0007 30.0073H60.0007V40.0098H70.0007V30.0073Z" fill="white"/>
<path d="M60.0002 30.0068H50.0002V40.0093H60.0002V30.0068Z" fill="white"/>
<path d="M80.0012 30.0068H70.0012V40.0093H80.0012V30.0068Z" fill="white"/>
<path d="M40.0007 20.0046H30.0007V30.0071H40.0007V20.0046Z" fill="white"/>
<path d="M60.0002 20.0046H50.0002V30.0071H60.0002V20.0046Z" fill="white"/>
<path d="M9.99996 40.0093H0L0 50.0117H9.99996V40.0093Z" fill="white"/>
<path d="M20.0005 40.0095H10.0005V50.012H20.0005V40.0095Z" fill="white"/>
<path d="M80.0005 40.0093H70.0005V50.0117H80.0005V40.0093Z" fill="white"/>
<path d="M90.0002 40.0093H80.0002V50.0117H90.0002V40.0093Z" fill="white"/>
</svg>
