<svg width="200" height="200" viewBox="0 0 200 200" fill="none" xmlns="http://www.w3.org/2000/svg">
<path d="M200 26.5756V173.424C200 188.155 188.155 200 173.424 200H26.5756C11.8451 200 0 188.003 0 173.424V26.5756C0 11.8451 11.8451 0 26.5756 0H173.424C188.003 0 200 11.8451 200 26.5756Z" fill="#F5921D"/>
<path d="M127.259 81.8528V63.7814H54.6701V27.4868H18.5273V148.368V154.442H36.5987V172.513H90.9647V154.442H109.036V136.219H127.107V99.9242H109.036V81.8528H127.259ZM90.9647 145.33H54.6701V127.107H72.7415V109.036H54.6701V90.9644H72.7415V109.036H90.8128V145.33H90.9647ZM90.9647 81.8528V63.7814H109.036V81.8528H90.9647Z" fill="white"/>
<path d="M109.036 45.5582H127.259V27.4868H109.036H90.9648V45.5582V63.7814H109.036V45.5582Z" fill="#414042"/>
<path d="M127.108 63.7815H109.036V81.8529H127.108V63.7815Z" fill="#414042"/>
<path d="M127.259 99.9246H109.036V118.148V136.219H127.259V117.996V99.9246Z" fill="#414042"/>
<path d="M163.403 154.29V136.219H145.331H127.26V154.29H145.331V172.513H163.403H181.474V154.29H163.403Z" fill="#414042"/>
<path d="M127.108 154.29H109.036V172.361H127.108V154.29Z" fill="#414042"/>
<path d="M109.036 136.219H90.9648V154.29H109.036V136.219Z" fill="#414042"/>
</svg>
