<svg width="120" height="30" viewBox="0 0 120 30" fill="none" xmlns="http://www.w3.org/2000/svg">
<path d="M75.1101 15.001L60.1096 15.001L60.1096 30.0015L75.1101 30.0015L75.1101 15.001Z" fill="#F5921D"/>
<path d="M90.1108 -6.55692e-07L75.1104 0L75.1104 15.0005L90.1108 15.0005L90.1108 -6.55692e-07Z" fill="#F5921D"/>
<path d="M104.999 15.001L89.9983 15.001L89.9983 30.0015L104.999 30.0015L104.999 15.001Z" fill="#F5921D"/>
<path d="M120 -6.55692e-07L104.999 0L104.999 15.0005L120 15.0005L120 -6.55692e-07Z" fill="#F5921D"/>
<path d="M15.0005 14.9976L0 14.9976L6.55692e-07 29.9981L15.0005 29.9981L15.0005 14.9976Z" fill="#F5921D"/>
<path d="M30.0005 0.034179L15 0.0341797L15 15.0347L30.0005 15.0347L30.0005 0.034179Z" fill="#F5921D"/>
<path d="M44.8892 14.9971L29.8887 14.9971L29.8887 29.9976L44.8892 29.9976L44.8892 14.9971Z" fill="#F5921D"/>
<path d="M59.8893 0.034179L44.8888 0.0341797L44.8888 15.0347L59.8893 15.0347L59.8893 0.034179Z" fill="#F5921D"/>
</svg>
