<svg width="90" height="90" viewBox="0 0 90 90" fill="none" xmlns="http://www.w3.org/2000/svg">
<path d="M49.9809 79.9434H59.9809V69.9409H49.9809V79.9434Z" fill="white"/>
<path d="M39.9892 79.9434H49.9892V69.9409H39.9892V79.9434Z" fill="white"/>
<path d="M29.9917 79.9434H39.9916V69.9409H29.9917V79.9434Z" fill="white"/>
<path d="M39.9892 89.9995H49.9892V79.9971H39.9892V89.9995Z" fill="white"/>
<path d="M69.9812 59.9629H79.9811V49.9604H69.9812V59.9629Z" fill="white"/>
<path d="M59.9778 59.9624H69.9777V49.96H59.9778V59.9624Z" fill="white"/>
<path d="M49.9809 59.9629H59.9809V49.9604H49.9809V59.9629Z" fill="white"/>
<path d="M19.9905 59.9629H29.9905V49.9604H19.9905V59.9629Z" fill="white"/>
<path d="M29.9917 59.9629H39.9916V49.9604H29.9917V59.9629Z" fill="white"/>
<path d="M9.99369 59.9624H19.9937V49.96H9.99369V59.9624Z" fill="white"/>
<path d="M49.9809 69.9307H59.9809V59.9282H49.9809V69.9307Z" fill="white"/>
<path d="M29.9917 69.9312H39.9916V59.9287H29.9917V69.9312Z" fill="white"/>
<path d="M40 10.0024H30V20.0049H40V10.0024Z" fill="white"/>
<path d="M49.9997 10.0029H39.9997V20.0054H49.9997V10.0029Z" fill="white"/>
<path d="M59.9994 10.0024H49.9995V20.0049H59.9994V10.0024Z" fill="white"/>
<path d="M50.0004 0.000488281L40.0004 0.000488281V10.0029H50.0004V0.000488281Z" fill="white"/>
<path d="M20.0005 30.0073H10.0005V40.0098H20.0005V30.0073Z" fill="white"/>
<path d="M30.0002 30.0073H20.0002V40.0098H30.0002V30.0073Z" fill="white"/>
<path d="M40 30.0073H30V40.0098H40V30.0073Z" fill="white"/>
<path d="M70.0006 30.0078H60.0007V40.0103H70.0006V30.0078Z" fill="white"/>
<path d="M60.0001 30.0073H50.0002V40.0098H60.0001V30.0073Z" fill="white"/>
<path d="M80.0011 30.0073H70.0012V40.0098H80.0011V30.0073Z" fill="white"/>
<path d="M40.0007 20.0049H30.0007V30.0073H40.0007V20.0049Z" fill="white"/>
<path d="M60.0001 20.0049H50.0002V30.0073H60.0001V20.0049Z" fill="white"/>
<path d="M9.99996 40.0098H0L0 50.0122H9.99996V40.0098Z" fill="white"/>
<path d="M20.0005 40.0103H10.0005V50.0127H20.0005V40.0103Z" fill="white"/>
<path d="M80.0004 40.0098H70.0004V50.0122H80.0004V40.0098Z" fill="white"/>
<path d="M90.0001 40.0098H80.0002V50.0122H90.0001V40.0098Z" fill="white"/>
</svg>
